<svg width="994" height="153" viewBox="0 0 994 153" fill="none" xmlns="http://www.w3.org/2000/svg">
<path d="M238.598 86.208H252.831C252.451 91.2458 251.054 95.7142 248.639 99.6133C246.223 103.478 242.859 106.514 238.546 108.723C234.233 110.931 229.005 112.035 222.863 112.035C218.136 112.035 213.875 111.207 210.079 109.551C206.318 107.86 203.092 105.462 200.4 102.356C197.743 99.2165 195.708 95.4554 194.293 91.0732C192.878 86.6566 192.171 81.7051 192.171 76.2188V70.4736C192.171 64.9873 192.896 60.0358 194.345 55.6191C195.794 51.2025 197.864 47.4414 200.556 44.3359C203.282 41.196 206.542 38.7806 210.338 37.0898C214.168 35.3991 218.447 34.5537 223.174 34.5537C229.316 34.5537 234.509 35.6924 238.753 37.9697C242.997 40.2126 246.292 43.3008 248.639 47.2344C250.985 51.168 252.4 55.6882 252.883 60.7949H238.649C238.373 57.6204 237.683 54.929 236.579 52.7207C235.509 50.5124 233.888 48.8389 231.714 47.7002C229.575 46.527 226.728 45.9404 223.174 45.9404C220.413 45.9404 217.981 46.458 215.876 47.4932C213.806 48.5283 212.08 50.0811 210.7 52.1514C209.32 54.1872 208.285 56.7406 207.595 59.8115C206.905 62.848 206.56 66.3675 206.56 70.3701V76.2188C206.56 80.0488 206.87 83.4821 207.491 86.5186C208.112 89.555 209.078 92.1257 210.39 94.2305C211.701 96.3353 213.392 97.9398 215.462 99.0439C217.532 100.148 219.999 100.7 222.863 100.7C226.348 100.7 229.178 100.148 231.352 99.0439C233.56 97.9398 235.233 96.318 236.372 94.1787C237.545 92.0394 238.287 89.3825 238.598 86.208Z" fill="white"/>
<path d="M260.388 83.5684V82.4814C260.388 78.3753 260.974 74.597 262.147 71.1465C263.321 67.6615 265.029 64.6423 267.271 62.0889C269.514 59.5355 272.257 57.5514 275.501 56.1367C278.744 54.6875 282.437 53.9629 286.577 53.9629C290.787 53.9629 294.513 54.6875 297.757 56.1367C301.035 57.5514 303.795 59.5355 306.038 62.0889C308.281 64.6423 309.989 67.6615 311.162 71.1465C312.335 74.597 312.922 78.3753 312.922 82.4814V83.5684C312.922 87.64 312.335 91.4183 311.162 94.9033C309.989 98.3538 308.281 101.373 306.038 103.961C303.795 106.514 301.052 108.498 297.809 109.913C294.565 111.328 290.856 112.035 286.681 112.035C282.54 112.035 278.831 111.328 275.553 109.913C272.275 108.498 269.514 106.514 267.271 103.961C265.029 101.373 263.321 98.3538 262.147 94.9033C260.974 91.4183 260.388 87.64 260.388 83.5684ZM274.052 82.4814V83.5684C274.052 86.0182 274.293 88.3128 274.776 90.4521C275.259 92.5915 276.001 94.472 277.002 96.0938C278.003 97.7155 279.297 98.9922 280.884 99.9238C282.506 100.821 284.438 101.27 286.681 101.27C288.889 101.27 290.787 100.821 292.374 99.9238C293.961 98.9922 295.255 97.7155 296.256 96.0938C297.291 94.472 298.05 92.5915 298.533 90.4521C299.016 88.3128 299.258 86.0182 299.258 83.5684V82.4814C299.258 80.0661 299.016 77.806 298.533 75.7012C298.05 73.5618 297.291 71.6813 296.256 70.0596C295.255 68.4033 293.944 67.1094 292.322 66.1777C290.735 65.2116 288.82 64.7285 286.577 64.7285C284.369 64.7285 282.471 65.2116 280.884 66.1777C279.297 67.1094 278.003 68.4033 277.002 70.0596C276.001 71.6813 275.259 73.5618 274.776 75.7012C274.293 77.806 274.052 80.0661 274.052 82.4814Z" fill="white"/>
<path d="M336.472 66.4883V111H322.808V54.998H335.695L336.472 66.4883ZM334.453 80.9805H330.261C330.261 77.0814 330.727 73.4928 331.658 70.2148C332.624 66.9368 334.039 64.0902 335.902 61.6748C337.766 59.2249 340.06 57.3271 342.786 55.9814C345.547 54.6357 348.738 53.9629 352.361 53.9629C354.88 53.9629 357.192 54.3424 359.297 55.1016C361.402 55.8262 363.213 56.9821 364.731 58.5693C366.284 60.1221 367.475 62.1579 368.303 64.6768C369.131 67.1611 369.545 70.1458 369.545 73.6309V111H355.881V75.0283C355.881 72.4059 355.501 70.3529 354.742 68.8691C354.018 67.3854 352.965 66.3503 351.585 65.7637C350.205 65.1426 348.549 64.832 346.616 64.832C344.477 64.832 342.631 65.2633 341.078 66.126C339.56 66.9541 338.3 68.11 337.3 69.5938C336.334 71.0775 335.609 72.7855 335.126 74.7178C334.677 76.6501 334.453 78.7376 334.453 80.9805ZM368.51 78.4443L362.868 79.4795C362.903 75.96 363.386 72.6647 364.317 69.5938C365.249 66.4883 366.612 63.7796 368.406 61.4678C370.235 59.1214 372.495 57.2926 375.187 55.9814C377.912 54.6357 381.052 53.9629 384.606 53.9629C387.367 53.9629 389.851 54.3597 392.06 55.1533C394.302 55.9124 396.217 57.1374 397.805 58.8281C399.392 60.4844 400.6 62.641 401.428 65.2979C402.29 67.9548 402.722 71.1982 402.722 75.0283V111H388.954V74.9766C388.954 72.2507 388.575 70.1631 387.815 68.7139C387.091 67.2646 386.038 66.264 384.658 65.7119C383.278 65.1253 381.656 64.832 379.793 64.832C377.895 64.832 376.239 65.1943 374.824 65.9189C373.444 66.609 372.271 67.5752 371.305 68.8174C370.373 70.0596 369.666 71.5088 369.183 73.165C368.734 74.7868 368.51 76.5465 368.51 78.4443Z" fill="white"/>
<path d="M428.601 66.4883V111H414.937V54.998H427.824L428.601 66.4883ZM426.582 80.9805H422.39C422.39 77.0814 422.855 73.4928 423.787 70.2148C424.753 66.9368 426.168 64.0902 428.031 61.6748C429.895 59.2249 432.189 57.3271 434.915 55.9814C437.675 54.6357 440.867 53.9629 444.49 53.9629C447.009 53.9629 449.321 54.3424 451.426 55.1016C453.531 55.8262 455.342 56.9821 456.86 58.5693C458.413 60.1221 459.604 62.1579 460.432 64.6768C461.26 67.1611 461.674 70.1458 461.674 73.6309V111H448.01V75.0283C448.01 72.4059 447.63 70.3529 446.871 68.8691C446.146 67.3854 445.094 66.3503 443.714 65.7637C442.334 65.1426 440.677 64.832 438.745 64.832C436.606 64.832 434.76 65.2633 433.207 66.126C431.689 66.9541 430.429 68.11 429.429 69.5938C428.463 71.0775 427.738 72.7855 427.255 74.7178C426.806 76.6501 426.582 78.7376 426.582 80.9805ZM460.639 78.4443L454.997 79.4795C455.032 75.96 455.515 72.6647 456.446 69.5938C457.378 66.4883 458.741 63.7796 460.535 61.4678C462.364 59.1214 464.624 57.2926 467.315 55.9814C470.041 54.6357 473.181 53.9629 476.735 53.9629C479.496 53.9629 481.98 54.3597 484.188 55.1533C486.431 55.9124 488.346 57.1374 489.934 58.8281C491.521 60.4844 492.729 62.641 493.557 65.2979C494.419 67.9548 494.851 71.1982 494.851 75.0283V111H481.083V74.9766C481.083 72.2507 480.703 70.1631 479.944 68.7139C479.22 67.2646 478.167 66.264 476.787 65.7119C475.407 65.1253 473.785 64.832 471.922 64.832C470.024 64.832 468.368 65.1943 466.953 65.9189C465.573 66.609 464.4 67.5752 463.434 68.8174C462.502 70.0596 461.795 71.5088 461.312 73.165C460.863 74.7868 460.639 76.5465 460.639 78.4443Z" fill="white"/>
<path d="M540.449 97.6982V54.998H554.217V111H541.277L540.449 97.6982ZM542.209 86.1045L546.453 86.001C546.453 89.762 546.039 93.2298 545.211 96.4043C544.383 99.5788 543.089 102.339 541.329 104.686C539.604 106.997 537.413 108.809 534.756 110.12C532.099 111.397 528.959 112.035 525.336 112.035C522.576 112.035 520.057 111.656 517.779 110.896C515.502 110.103 513.535 108.878 511.879 107.222C510.257 105.531 508.998 103.374 508.101 100.752C507.203 98.0951 506.755 94.9033 506.755 91.1768V54.998H520.419V91.2803C520.419 93.1436 520.626 94.6963 521.04 95.9385C521.489 97.1807 522.092 98.1986 522.852 98.9922C523.645 99.7513 524.56 100.303 525.595 100.648C526.664 100.959 527.803 101.114 529.011 101.114C532.323 101.114 534.928 100.459 536.826 99.1475C538.758 97.8018 540.139 96.0075 540.967 93.7646C541.795 91.4873 542.209 88.9339 542.209 86.1045Z" fill="white"/>
<path d="M579.733 66.9541V111H566.069V54.998H578.905L579.733 66.9541ZM577.56 80.9805H573.522C573.557 76.9089 574.109 73.2168 575.179 69.9043C576.248 66.5918 577.749 63.7451 579.682 61.3643C581.648 58.9834 583.978 57.1546 586.669 55.8779C589.36 54.6012 592.362 53.9629 595.675 53.9629C598.366 53.9629 600.799 54.3424 602.973 55.1016C605.146 55.8607 607.01 57.0684 608.562 58.7246C610.15 60.3809 611.357 62.5547 612.186 65.2461C613.048 67.903 613.479 71.181 613.479 75.0801V111H599.712V74.9766C599.712 72.4232 599.332 70.4046 598.573 68.9209C597.849 67.4372 596.779 66.3848 595.364 65.7637C593.984 65.1426 592.276 64.832 590.24 64.832C588.135 64.832 586.289 65.2633 584.702 66.126C583.149 66.9541 581.838 68.11 580.769 69.5938C579.733 71.0775 578.94 72.7855 578.388 74.7178C577.836 76.6501 577.56 78.7376 577.56 80.9805Z" fill="white"/>
<path d="M640.031 54.998V111H626.315V54.998H640.031ZM625.384 40.3506C625.384 38.3148 626.074 36.624 627.454 35.2783C628.869 33.9326 630.767 33.2598 633.147 33.2598C635.528 33.2598 637.409 33.9326 638.789 35.2783C640.204 36.624 640.911 38.3148 640.911 40.3506C640.911 42.3519 640.204 44.0254 638.789 45.3711C637.409 46.7168 635.528 47.3896 633.147 47.3896C630.767 47.3896 628.869 46.7168 627.454 45.3711C626.074 44.0254 625.384 42.3519 625.384 40.3506Z" fill="white"/>
<path d="M679.574 54.998V64.832H647.484V54.998H679.574ZM656.076 41.2305H669.792V94.8516C669.792 96.5078 670.016 97.7845 670.465 98.6816C670.913 99.5788 671.586 100.183 672.483 100.493C673.381 100.804 674.45 100.959 675.692 100.959C676.59 100.959 677.418 100.907 678.177 100.804C678.936 100.7 679.574 100.597 680.092 100.493L680.144 110.741C679.005 111.121 677.711 111.431 676.262 111.673C674.847 111.914 673.243 112.035 671.448 112.035C668.377 112.035 665.686 111.518 663.374 110.482C661.062 109.413 659.268 107.705 657.991 105.358C656.715 102.978 656.076 99.8376 656.076 95.9385V41.2305Z" fill="white"/>
<path d="M705.091 104.789L720.101 54.998H734.748L712.285 119.488C711.768 120.868 711.095 122.369 710.267 123.991C709.473 125.613 708.403 127.148 707.058 128.598C705.712 130.081 704.021 131.289 701.985 132.221C699.984 133.152 697.551 133.618 694.688 133.618C693.445 133.618 692.341 133.532 691.375 133.359C690.409 133.187 689.391 132.963 688.321 132.687V122.438C688.666 122.473 689.063 122.49 689.512 122.49C689.995 122.525 690.409 122.542 690.754 122.542C692.755 122.542 694.411 122.3 695.723 121.817C697.034 121.369 698.086 120.627 698.88 119.592C699.708 118.591 700.398 117.28 700.95 115.658L705.091 104.789ZM697.689 54.998L710.37 96.249L712.596 110.689L703.176 112.397L682.938 54.998H697.689Z" fill="white"/>
<path d="M781.848 91.4355C781.848 89.9863 781.623 88.6924 781.175 87.5537C780.761 86.3805 779.984 85.3281 778.846 84.3965C777.742 83.4303 776.172 82.4987 774.136 81.6016C772.134 80.6699 769.547 79.7038 766.372 78.7031C762.853 77.599 759.575 76.3568 756.538 74.9766C753.502 73.5964 750.827 71.9919 748.516 70.1631C746.238 68.3343 744.461 66.2295 743.185 63.8486C741.908 61.4333 741.27 58.6383 741.27 55.4639C741.27 52.3584 741.925 49.529 743.236 46.9756C744.582 44.4222 746.48 42.2311 748.93 40.4023C751.38 38.5391 754.261 37.1071 757.573 36.1064C760.92 35.1058 764.612 34.6055 768.649 34.6055C774.239 34.6055 779.07 35.6234 783.142 37.6592C787.248 39.695 790.422 42.4554 792.665 45.9404C794.908 49.4255 796.029 53.3418 796.029 57.6895H781.848C781.848 55.3431 781.347 53.2728 780.347 51.4785C779.381 49.6842 777.897 48.2695 775.896 47.2344C773.929 46.1992 771.444 45.6816 768.442 45.6816C765.544 45.6816 763.129 46.113 761.196 46.9756C759.299 47.8382 757.867 49.0114 756.9 50.4951C755.969 51.9788 755.503 53.6351 755.503 55.4639C755.503 56.8441 755.831 58.0863 756.486 59.1904C757.142 60.2601 758.125 61.278 759.437 62.2441C760.748 63.1758 762.369 64.0557 764.302 64.8838C766.269 65.6774 768.546 66.471 771.134 67.2646C775.274 68.5068 778.897 69.887 782.003 71.4053C785.143 72.9235 787.748 74.6488 789.818 76.5811C791.923 78.5133 793.493 80.6872 794.528 83.1025C795.598 85.5179 796.133 88.2611 796.133 91.332C796.133 94.5755 795.494 97.474 794.218 100.027C792.941 102.581 791.112 104.755 788.731 106.549C786.351 108.343 783.487 109.706 780.14 110.638C776.827 111.569 773.118 112.035 769.012 112.035C765.354 112.035 761.731 111.552 758.143 110.586C754.589 109.585 751.362 108.102 748.464 106.135C745.565 104.133 743.254 101.615 741.528 98.5781C739.803 95.5072 738.94 91.9186 738.94 87.8125H753.226C753.226 90.1934 753.605 92.2292 754.364 93.9199C755.158 95.5762 756.262 96.9391 757.677 98.0088C759.126 99.0439 760.817 99.8031 762.749 100.286C764.681 100.769 766.769 101.011 769.012 101.011C771.91 101.011 774.291 100.614 776.154 99.8203C778.052 98.9922 779.467 97.8535 780.398 96.4043C781.365 94.9551 781.848 93.2988 781.848 91.4355Z" fill="white"/>
<path d="M829.051 101.27C830.983 101.27 832.708 100.89 834.227 100.131C835.745 99.3717 836.952 98.3021 837.85 96.9219C838.781 95.5417 839.282 93.9372 839.351 92.1084H852.238C852.169 95.904 851.1 99.3027 849.029 102.305C846.959 105.307 844.199 107.688 840.748 109.447C837.332 111.173 833.502 112.035 829.258 112.035C824.945 112.035 821.184 111.311 817.975 109.861C814.766 108.412 812.091 106.394 809.952 103.806C807.847 101.218 806.26 98.2158 805.19 94.7998C804.155 91.3838 803.638 87.7262 803.638 83.8271V82.1709C803.638 78.2718 804.155 74.6143 805.19 71.1982C806.26 67.7822 807.847 64.7803 809.952 62.1924C812.091 59.6045 814.766 57.5859 817.975 56.1367C821.184 54.6875 824.927 53.9629 829.206 53.9629C833.726 53.9629 837.694 54.8428 841.11 56.6025C844.561 58.3623 847.252 60.8467 849.185 64.0557C851.151 67.2646 852.169 71.043 852.238 75.3906H839.351C839.282 73.3893 838.833 71.5951 838.005 70.0078C837.177 68.4206 836.004 67.1439 834.485 66.1777C832.967 65.2116 831.121 64.7285 828.947 64.7285C826.635 64.7285 824.703 65.2116 823.15 66.1777C821.632 67.1439 820.442 68.4723 819.579 70.1631C818.751 71.8193 818.164 73.6826 817.819 75.7529C817.509 77.7887 817.354 79.9281 817.354 82.1709V83.8271C817.354 86.1045 817.509 88.2783 817.819 90.3486C818.164 92.4189 818.751 94.2822 819.579 95.9385C820.442 97.5602 821.632 98.8542 823.15 99.8203C824.703 100.786 826.67 101.27 829.051 101.27Z" fill="white"/>
<path d="M892.195 99.0957V73.2686C892.195 71.3708 891.868 69.7318 891.212 68.3516C890.556 66.9714 889.556 65.9017 888.21 65.1426C886.864 64.3835 885.156 64.0039 883.086 64.0039C881.257 64.0039 879.653 64.3145 878.272 64.9355C876.927 65.5566 875.892 66.4365 875.167 67.5752C874.442 68.6794 874.08 69.9561 874.08 71.4053H860.364C860.364 69.0934 860.916 66.9023 862.021 64.832C863.125 62.7272 864.695 60.8639 866.73 59.2422C868.801 57.5859 871.268 56.292 874.132 55.3604C877.03 54.4287 880.274 53.9629 883.862 53.9629C888.106 53.9629 891.885 54.6875 895.197 56.1367C898.544 57.5514 901.167 59.6908 903.064 62.5547C904.997 65.4186 905.963 69.0244 905.963 73.3721V97.8018C905.963 100.597 906.135 102.995 906.48 104.996C906.86 106.963 907.412 108.671 908.137 110.12V111H894.214C893.558 109.585 893.058 107.791 892.713 105.617C892.368 103.409 892.195 101.235 892.195 99.0957ZM894.11 76.8916L894.214 85.0176H885.57C883.431 85.0176 881.55 85.2419 879.929 85.6904C878.307 86.1045 876.979 86.7256 875.943 87.5537C874.908 88.3473 874.132 89.3135 873.614 90.4521C873.097 91.5563 872.838 92.8158 872.838 94.2305C872.838 95.6107 873.148 96.8529 873.77 97.957C874.425 99.0612 875.357 99.9411 876.564 100.597C877.807 101.218 879.256 101.528 880.912 101.528C883.327 101.528 885.432 101.045 887.227 100.079C889.021 99.0785 890.418 97.8708 891.419 96.4561C892.42 95.0413 892.954 93.6956 893.023 92.4189L896.957 98.3193C896.474 99.734 895.749 101.235 894.783 102.822C893.817 104.41 892.575 105.893 891.057 107.273C889.538 108.654 887.71 109.792 885.57 110.689C883.431 111.587 880.947 112.035 878.117 112.035C874.494 112.035 871.251 111.311 868.387 109.861C865.523 108.412 863.263 106.428 861.606 103.909C859.95 101.39 859.122 98.5264 859.122 95.3174C859.122 92.3499 859.674 89.7275 860.778 87.4502C861.882 85.1729 863.521 83.2578 865.695 81.7051C867.869 80.1178 870.561 78.9274 873.77 78.1338C877.013 77.3057 880.722 76.8916 884.897 76.8916H894.11Z" fill="white"/>
<path d="M932.773 31.5V111H919.058V31.5H932.773Z" fill="white"/>
<path d="M970.971 112.035C966.727 112.035 962.914 111.345 959.532 109.965C956.151 108.585 953.27 106.67 950.889 104.22C948.542 101.735 946.731 98.8542 945.454 95.5762C944.212 92.2637 943.591 88.7096 943.591 84.9141V82.8438C943.591 78.5306 944.212 74.6143 945.454 71.0947C946.696 67.5407 948.456 64.487 950.733 61.9336C953.011 59.3802 955.737 57.4134 958.911 56.0332C962.086 54.653 965.588 53.9629 969.418 53.9629C973.386 53.9629 976.888 54.6357 979.925 55.9814C982.961 57.2926 985.497 59.1559 987.533 61.5713C989.569 63.9867 991.104 66.8851 992.14 70.2666C993.175 73.6136 993.692 77.3229 993.692 81.3945V87.1396H949.802V77.7197H980.235V76.6846C980.166 74.5107 979.752 72.5267 978.993 70.7324C978.234 68.9036 977.061 67.4544 975.474 66.3848C973.886 65.2806 971.833 64.7285 969.314 64.7285C967.279 64.7285 965.502 65.1771 963.983 66.0742C962.5 66.9368 961.257 68.179 960.257 69.8008C959.291 71.388 958.566 73.2858 958.083 75.4941C957.6 77.7025 957.358 80.1523 957.358 82.8438V84.9141C957.358 87.2604 957.669 89.4342 958.29 91.4355C958.946 93.4368 959.895 95.1794 961.137 96.6631C962.413 98.1123 963.932 99.251 965.691 100.079C967.486 100.873 969.521 101.27 971.799 101.27C974.663 101.27 977.251 100.717 979.562 99.6133C981.909 98.4746 983.945 96.8011 985.67 94.5928L992.554 101.735C991.381 103.461 989.793 105.117 987.792 106.704C985.825 108.291 983.444 109.585 980.649 110.586C977.854 111.552 974.628 112.035 970.971 112.035Z" fill="white"/>
<path d="M0 19.7227C0 8.83013 8.83013 0 19.7227 0H133.277C144.17 0 153 8.83013 153 19.7227V133.277C153 144.17 144.17 153 133.277 153H19.7227C8.83013 153 0 144.17 0 133.277V19.7227Z" fill="black"/>
<path d="M91.4069 51.3812L91.3974 51.3773L91.3871 51.3765L91.376 51.3773L91.3665 51.3805L91.3578 51.386L91.3499 51.3932L91.3444 51.4019L91.3412 51.4114L91.3396 51.4225V110.826L91.3372 110.843L91.3341 110.849L91.3301 110.856L91.3238 110.86L91.3174 110.863L91.3 110.865H82.3577L82.3403 110.863L82.3339 110.86L82.3284 110.856L82.3236 110.849L82.3205 110.843L82.3181 110.826V48.0539L82.3165 48.0389L82.311 48.0262L82.3007 48.015L82.2872 48.0071L80.9633 47.4449L79.6409 46.8811L77.0025 45.7495L76.9487 45.7272L76.8901 45.705L76.7319 45.6518L76.5823 45.601L76.4747 45.5597L76.4541 45.5533L76.4335 45.5509L76.4114 45.5533L76.3892 45.5613L70.7539 48.1786L70.7389 48.1866L70.7254 48.1969L70.7136 48.2088L70.7041 48.2223L70.6954 48.2374L70.6898 48.2533L70.6867 48.2699L70.6851 48.2866V110.826L70.6827 110.843L70.6795 110.849L70.6756 110.856L70.6693 110.86L70.6629 110.863L70.6455 110.865H61.7031L61.6857 110.863L61.6794 110.86L61.6739 110.856L61.6691 110.849L61.6659 110.843L61.6636 110.826V51.5861L61.6628 51.5774L61.6596 51.5687L61.6549 51.5615L61.6485 51.5552L61.6414 51.5512L61.6327 51.548L61.624 51.5472L61.6153 51.548L61.6074 51.5512L50.1635 57.1599L50.1516 57.1663L50.1413 57.175L50.1319 57.1846L50.1239 57.1957L50.1176 57.2076L50.1136 57.2203L50.1105 57.233L50.1097 57.2465V110.826L50.1073 110.843L50.1042 110.849L50.1002 110.856L50.0939 110.86L50.0875 110.863L50.0701 110.865H41.1277L41.1103 110.863L41.104 110.86L41.0985 110.856L41.0937 110.849L41.0906 110.843L41.0882 110.826V60.6437L41.0866 60.6326L41.0834 60.6207L41.0771 60.6111L41.0684 60.6024L41.0589 60.5952L41.0478 60.5913L41.0359 60.5897L41.0233 60.5905L41.0122 60.5944L33.0297 64.2283L33.0179 64.233L33.0068 64.2354H32.9965L32.987 64.233L32.9775 64.2291L32.9696 64.2235L32.9625 64.2148L32.9554 64.2044L30.1872 59.4073V59.4065L30.184 59.3993L30.1816 59.3914V59.3826L30.1832 59.3747L30.1864 59.3668L30.1911 59.3596L30.1967 59.3541L30.2038 59.3493L30.4262 59.2318L30.6343 59.119L73.8054 35.3387L73.8387 35.3221L73.8719 35.307L73.9059 35.2943L73.9407 35.2832L73.9819 35.2736L74.023 35.2673L74.0658 35.2633L74.1085 35.2617L75.2497 35.2657L76.39 35.2673H77.5296L78.6683 35.2649L78.7103 35.2657L78.7514 35.2681L78.7926 35.272L78.8329 35.2776L78.9034 35.2911L78.973 35.3094L79.0442 35.3332L79.1162 35.3626L79.1891 35.3967L79.2682 35.438L79.3552 35.4872L79.4755 35.5595L79.6093 35.6389L79.7121 35.6977L122.791 59.5105L122.801 59.5168L122.808 59.5232L122.814 59.5303L122.818 59.5383L122.818 59.547L122.818 59.5558L122.814 59.5661L122.81 59.5764L120.112 64.2187L120.102 64.2322L120.089 64.2394L120.075 64.2402L120.059 64.2354L111.988 60.5166L111.97 60.5103L111.956 60.5071L111.943 60.5079L111.933 60.5119L111.925 60.519L111.92 60.5301L111.916 60.5452L111.915 60.5635V110.826L111.913 110.843L111.909 110.849L111.905 110.856L111.899 110.86L111.893 110.863L111.875 110.865H102.933L102.916 110.863L102.909 110.86L102.904 110.856L102.899 110.849L102.896 110.843L102.893 110.826V57.1861L102.891 57.1679L102.883 57.1504L102.871 57.1361L102.856 57.125L91.4069 51.3812Z" fill="white"/>
<path d="M0 19.7227C0 8.83013 8.83013 0 19.7227 0H133.277C144.17 0 153 8.83013 153 19.7227V133.277C153 144.17 144.17 153 133.277 153H19.7227C8.83013 153 0 144.17 0 133.277V19.7227Z" fill="white"/>
<path d="M91.4069 51.3812L91.3974 51.3773L91.3871 51.3765L91.376 51.3773L91.3665 51.3805L91.3578 51.386L91.3499 51.3932L91.3444 51.4019L91.3412 51.4114L91.3396 51.4225V110.826L91.3372 110.843L91.3341 110.849L91.3301 110.856L91.3238 110.86L91.3174 110.863L91.3 110.865H82.3577L82.3403 110.863L82.3339 110.86L82.3284 110.856L82.3236 110.849L82.3205 110.843L82.3181 110.826V48.0539L82.3165 48.0389L82.311 48.0262L82.3007 48.015L82.2872 48.0071L80.9633 47.4449L79.6409 46.8811L77.0025 45.7495L76.9487 45.7272L76.8901 45.705L76.7319 45.6518L76.5823 45.601L76.4747 45.5597L76.4541 45.5533L76.4335 45.5509L76.4114 45.5533L76.3892 45.5613L70.7539 48.1786L70.7389 48.1866L70.7254 48.1969L70.7136 48.2088L70.7041 48.2223L70.6954 48.2374L70.6898 48.2533L70.6867 48.2699L70.6851 48.2866V110.826L70.6827 110.843L70.6795 110.849L70.6756 110.856L70.6693 110.86L70.6629 110.863L70.6455 110.865H61.7031L61.6857 110.863L61.6794 110.86L61.6739 110.856L61.6691 110.849L61.6659 110.843L61.6636 110.826V51.5861L61.6628 51.5774L61.6596 51.5687L61.6549 51.5615L61.6485 51.5552L61.6414 51.5512L61.6327 51.548L61.624 51.5472L61.6153 51.548L61.6074 51.5512L50.1635 57.1599L50.1516 57.1663L50.1413 57.175L50.1319 57.1846L50.1239 57.1957L50.1176 57.2076L50.1136 57.2203L50.1105 57.233L50.1097 57.2465V110.826L50.1073 110.843L50.1042 110.849L50.1002 110.856L50.0939 110.86L50.0875 110.863L50.0701 110.865H41.1277L41.1103 110.863L41.104 110.86L41.0985 110.856L41.0937 110.849L41.0906 110.843L41.0882 110.826V60.6437L41.0866 60.6326L41.0834 60.6207L41.0771 60.6111L41.0684 60.6024L41.0589 60.5952L41.0478 60.5913L41.0359 60.5897L41.0233 60.5905L41.0122 60.5944L33.0297 64.2283L33.0179 64.233L33.0068 64.2354H32.9965L32.987 64.233L32.9775 64.2291L32.9696 64.2235L32.9625 64.2148L32.9554 64.2044L30.1872 59.4073V59.4065L30.184 59.3993L30.1816 59.3914V59.3826L30.1832 59.3747L30.1864 59.3668L30.1911 59.3596L30.1967 59.3541L30.2038 59.3493L30.4262 59.2318L30.6343 59.119L73.8054 35.3387L73.8387 35.3221L73.8719 35.307L73.9059 35.2943L73.9407 35.2832L73.9819 35.2736L74.023 35.2673L74.0658 35.2633L74.1085 35.2617L75.2497 35.2657L76.39 35.2673H77.5296L78.6683 35.2649L78.7103 35.2657L78.7514 35.2681L78.7926 35.272L78.8329 35.2776L78.9034 35.2911L78.973 35.3094L79.0442 35.3332L79.1162 35.3626L79.1891 35.3967L79.2682 35.438L79.3552 35.4872L79.4755 35.5595L79.6093 35.6389L79.7121 35.6977L122.791 59.5105L122.801 59.5168L122.808 59.5232L122.814 59.5303L122.818 59.5383L122.818 59.547L122.818 59.5558L122.814 59.5661L122.81 59.5764L120.112 64.2187L120.102 64.2322L120.089 64.2394L120.075 64.2402L120.059 64.2354L111.988 60.5166L111.97 60.5103L111.956 60.5071L111.943 60.5079L111.933 60.5119L111.925 60.519L111.92 60.5301L111.916 60.5452L111.915 60.5635V110.826L111.913 110.843L111.909 110.849L111.905 110.856L111.899 110.86L111.893 110.863L111.875 110.865H102.933L102.916 110.863L102.909 110.86L102.904 110.856L102.899 110.849L102.896 110.843L102.893 110.826V57.1861L102.891 57.1679L102.883 57.1504L102.871 57.1361L102.856 57.125L91.4069 51.3812Z" fill="black"/>
</svg>
