<svg width="153" height="153" viewBox="0 0 153 153" fill="none" xmlns="http://www.w3.org/2000/svg">
<rect width="153" height="153" fill="black"/>
<path d="M91.4069 51.3812L91.3974 51.3773L91.3871 51.3765L91.376 51.3773L91.3665 51.3805L91.3578 51.386L91.3499 51.3932L91.3444 51.4019L91.3412 51.4114L91.3396 51.4225V110.826L91.3372 110.843L91.3341 110.849L91.3301 110.856L91.3238 110.86L91.3174 110.863L91.3 110.865H82.3577L82.3403 110.863L82.3339 110.86L82.3284 110.856L82.3236 110.849L82.3205 110.843L82.3181 110.826V48.0539L82.3165 48.0389L82.311 48.0262L82.3007 48.015L82.2872 48.0071L80.9633 47.4449L79.6409 46.8811L77.0025 45.7495L76.9487 45.7272L76.8901 45.705L76.7319 45.6518L76.5823 45.601L76.4747 45.5597L76.4541 45.5533L76.4335 45.5509L76.4114 45.5533L76.3892 45.5613L70.7539 48.1786L70.7389 48.1866L70.7254 48.1969L70.7136 48.2088L70.7041 48.2223L70.6954 48.2374L70.6898 48.2533L70.6867 48.2699L70.6851 48.2866V110.826L70.6827 110.843L70.6795 110.849L70.6756 110.856L70.6693 110.86L70.6629 110.863L70.6455 110.865H61.7031L61.6857 110.863L61.6794 110.86L61.6739 110.856L61.6691 110.849L61.6659 110.843L61.6636 110.826V51.5861L61.6628 51.5774L61.6596 51.5687L61.6549 51.5615L61.6485 51.5552L61.6414 51.5512L61.6327 51.548L61.624 51.5472L61.6153 51.548L61.6074 51.5512L50.1635 57.1599L50.1516 57.1663L50.1413 57.175L50.1319 57.1846L50.1239 57.1957L50.1176 57.2076L50.1136 57.2203L50.1105 57.233L50.1097 57.2465V110.826L50.1073 110.843L50.1042 110.849L50.1002 110.856L50.0939 110.86L50.0875 110.863L50.0701 110.865H41.1277L41.1103 110.863L41.104 110.86L41.0985 110.856L41.0937 110.849L41.0906 110.843L41.0882 110.826V60.6437L41.0866 60.6326L41.0834 60.6207L41.0771 60.6111L41.0684 60.6024L41.0589 60.5952L41.0478 60.5913L41.0359 60.5897L41.0233 60.5905L41.0122 60.5944L33.0297 64.2283L33.0179 64.233L33.0068 64.2354H32.9965L32.987 64.233L32.9775 64.2291L32.9696 64.2235L32.9625 64.2148L32.9554 64.2044L30.1872 59.4073L30.184 59.3993L30.1816 59.3914V59.3826L30.1832 59.3747L30.1864 59.3668L30.1911 59.3596L30.1967 59.3541L30.2038 59.3493L30.4262 59.2318L30.6343 59.119L73.8054 35.3387L73.8387 35.3221L73.8719 35.307L73.9059 35.2943L73.9407 35.2832L73.9819 35.2736L74.023 35.2673L74.0658 35.2633L74.1085 35.2617L75.2496 35.2657L76.39 35.2673H77.5296L78.6683 35.2649L78.7103 35.2657L78.7514 35.2681L78.7926 35.272L78.8329 35.2776L78.9034 35.2911L78.973 35.3094L79.0442 35.3332L79.1162 35.3626L79.189 35.3967L79.2682 35.438L79.3552 35.4872L79.4755 35.5595L79.6093 35.6389L79.7121 35.6977L122.791 59.5105L122.801 59.5168L122.808 59.5232L122.814 59.5303L122.818 59.5383L122.818 59.547L122.818 59.5558L122.814 59.5661L122.81 59.5764L120.112 64.2187L120.102 64.2322L120.089 64.2394L120.075 64.2402L120.059 64.2354L111.988 60.5166L111.97 60.5103L111.956 60.5071L111.943 60.5079L111.933 60.5119L111.925 60.519L111.92 60.5301L111.916 60.5452L111.915 60.5635V110.826L111.913 110.843L111.909 110.849L111.905 110.856L111.899 110.86L111.893 110.863L111.875 110.865H102.933L102.916 110.863L102.909 110.86L102.904 110.856L102.899 110.849L102.896 110.843L102.893 110.826V57.1861L102.891 57.1679L102.883 57.1504L102.871 57.1361L102.856 57.125L91.4069 51.3812Z" fill="white"/>
</svg>
