<svg width="153" height="124" viewBox="0 0 153 124" fill="none" xmlns="http://www.w3.org/2000/svg">
<path d="M101.12 26.4382L101.105 26.4317L101.088 26.4304L101.069 26.4317L101.054 26.4369L101.039 26.446L101.026 26.4577L101.017 26.4721L101.012 26.4877L101.009 26.5059V123.935L101.005 123.964L101 123.974L100.994 123.984L100.983 123.991L100.973 123.996L100.944 124H86.1746L86.1458 123.996L86.1354 123.991L86.1262 123.984L86.1184 123.974L86.1132 123.964L86.1092 123.935V20.981L86.1066 20.9562L86.0975 20.9354L86.0805 20.9172L86.0583 20.9041L83.8716 19.982L81.6876 19.0573L77.33 17.2013L77.2411 17.1648L77.1444 17.1284L76.883 17.0411L76.6359 16.9578L76.4582 16.89L76.4242 16.8796L76.3902 16.8757L76.3536 16.8796L76.317 16.8926L67.0097 21.1855L66.9849 21.1985L66.9627 21.2154L66.9431 21.235L66.9274 21.2571L66.913 21.2819L66.9038 21.3079L66.8986 21.3352L66.896 21.3626V123.935L66.8921 123.964L66.8869 123.974L66.8803 123.984L66.8699 123.991L66.8594 123.996L66.8306 124H52.0613L52.0326 123.996L52.0221 123.991L52.0129 123.984L52.0051 123.974L51.9999 123.964L51.9959 123.935V26.7742L51.9946 26.7599L51.9894 26.7456L51.9816 26.7339L51.9711 26.7234L51.9594 26.7169L51.945 26.7117L51.9306 26.7104L51.9162 26.7117L51.9032 26.7169L33.0023 35.9161L32.9827 35.9265L32.9657 35.9408L32.95 35.9564L32.937 35.9747L32.9265 35.9942L32.92 36.015L32.9147 36.0359L32.9134 36.058V123.935L32.9095 123.964L32.9043 123.974L32.8977 123.984L32.8873 123.991L32.8768 123.996L32.8481 124H18.0787L18.05 123.996L18.0395 123.991L18.0304 123.984L18.0225 123.974L18.0173 123.964L18.0134 123.935V41.6299L18.0108 41.6116L18.0055 41.5921L17.9951 41.5765L17.9807 41.5621L17.965 41.5504L17.9467 41.5439L17.9271 41.5413L17.9062 41.5426L17.8879 41.5491L4.70397 47.5091L4.68437 47.5169L4.66607 47.5208H4.64908L4.63339 47.5169L4.61771 47.5104L4.60464 47.5012L4.59287 47.4869L4.58111 47.47L0.00915134 39.602L0.00391885 39.5889L0 39.5759V39.5616L0.00261467 39.5486L0.007844 39.5355L0.0156817 39.5238L0.024833 39.5147L0.0365959 39.5069L0.403868 39.3141L0.747615 39.1292L72.0496 0.126334L72.1045 0.098986L72.1594 0.0742411L72.2156 0.0534003L72.2731 0.0351622L72.3411 0.0195394L72.409 0.0091159L72.4796 0.00260901L72.5502 0L74.4349 0.00651314L76.3183 0.0091159H78.2004L80.0812 0.00521176L80.1505 0.00651314L80.2185 0.0104235L80.2864 0.0169304L80.3531 0.0260463L80.4694 0.0481947L80.5844 0.0781452L80.7021 0.117218L80.821 0.165406L80.9413 0.221416L81.072 0.289143L81.2157 0.369891L81.4144 0.488411L81.6353 0.618655L81.8052 0.715038L152.956 39.7713L152.971 39.7817L152.983 39.7921L152.992 39.8038L152.999 39.8169L153 39.8312L152.999 39.8455L152.993 39.8624L152.986 39.8794L148.53 47.4934L148.513 47.5156L148.492 47.5273L148.469 47.5286L148.442 47.5208L135.112 41.4215L135.083 41.411L135.06 41.4058L135.039 41.4071L135.022 41.4137L135.009 41.4254L135 41.4436L134.993 41.4684L134.992 41.4983V123.935L134.988 123.964L134.983 123.974L134.976 123.984L134.966 123.991L134.955 123.996L134.926 124H120.157L120.128 123.996L120.118 123.991L120.109 123.984L120.101 123.974L120.096 123.964L120.092 123.935V35.959L120.088 35.9291L120.075 35.9004L120.055 35.877L120.03 35.8588L101.12 26.4382Z" fill="black"/>
</svg>
